<?xml version="1.0" encoding="utf-8"?>
<!-- Generator: Adobe Illustrator 21.0.2, SVG Export Plug-In . SVG Version: 6.00 Build 0)  -->
<svg version="1.1" id="Layer_1" xmlns="http://www.w3.org/2000/svg" xmlns:xlink="http://www.w3.org/1999/xlink" x="0px" y="0px"
	 viewBox="0 0 135.7 38.1" style="enable-background:new 0 0 135.7 38.1;" xml:space="preserve">
<style type="text/css">
	.st0{fill:#FF8A00;}
	.st1{fill:#777777;}
</style>
<g>
	<g>
		<g>
			<g>
				<path class="st0" d="M12.5,26.9H7.1c-0.4,0-0.7,0.3-0.7,0.7c0,0.4,0.3,0.7,0.7,0.7h5.3c0.4,0,0.7-0.3,0.7-0.7
					C13.2,27.2,12.9,26.9,12.5,26.9z"/>
			</g>
		</g>
		<g>
			<g>
				<path class="st0" d="M12.5,30.1H7.1c-0.4,0-0.7,0.3-0.7,0.7c0,0.4,0.3,0.7,0.7,0.7h5.3c0.4,0,0.7-0.3,0.7-0.7
					C13.2,30.5,12.9,30.1,12.5,30.1z"/>
			</g>
		</g>
		<g>
			<g>
				<path class="st0" d="M12.5,33.4H7.1c-0.4,0-0.7,0.3-0.7,0.7s0.3,0.7,0.7,0.7h5.3c0.4,0,0.7-0.3,0.7-0.7
					C13.2,33.7,12.9,33.4,12.5,33.4z"/>
			</g>
		</g>
		<g>
			<g>
				<path class="st0" d="M22.2,26.9h-5.3c-0.4,0-0.7,0.3-0.7,0.7c0,0.4,0.3,0.7,0.7,0.7h5.3c0.4,0,0.7-0.3,0.7-0.7
					C22.9,27.2,22.6,26.9,22.2,26.9z"/>
			</g>
		</g>
		<g>
			<g>
				<path class="st0" d="M22.2,30.1h-5.3c-0.4,0-0.7,0.3-0.7,0.7c0,0.4,0.3,0.7,0.7,0.7h5.3c0.4,0,0.7-0.3,0.7-0.7
					C22.9,30.5,22.6,30.1,22.2,30.1z"/>
			</g>
		</g>
		<g>
			<g>
				<path class="st0" d="M22.2,33.4h-5.3c-0.4,0-0.7,0.3-0.7,0.7s0.3,0.7,0.7,0.7h5.3c0.4,0,0.7-0.3,0.7-0.7
					C22.9,33.7,22.6,33.4,22.2,33.4z"/>
			</g>
		</g>
		<g>
			<g>
				<path class="st0" d="M31.9,26.9h-5.3c-0.4,0-0.7,0.3-0.7,0.7c0,0.4,0.3,0.7,0.7,0.7h5.3c0.4,0,0.7-0.3,0.7-0.7
					C32.6,27.2,32.2,26.9,31.9,26.9z"/>
			</g>
		</g>
		<g>
			<g>
				<path class="st0" d="M31.9,30.1h-5.3c-0.4,0-0.7,0.3-0.7,0.7c0,0.4,0.3,0.7,0.7,0.7h5.3c0.4,0,0.7-0.3,0.7-0.7
					C32.6,30.5,32.2,30.1,31.9,30.1z"/>
			</g>
		</g>
		<g>
			<g>
				<path class="st0" d="M31.9,33.4h-5.3c-0.4,0-0.7,0.3-0.7,0.7s0.3,0.7,0.7,0.7h5.3c0.4,0,0.7-0.3,0.7-0.7S32.2,33.4,31.9,33.4z"
					/>
			</g>
		</g>
		<g>
			<g>
				<path class="st0" d="M33.5,0.2H4.2c-1.3,0-2.3,1-2.3,2.3s1,2.3,2.3,2.3h1.5c0.5,0,0.9,0.4,0.9,0.9v0.9c0,0.4,0.3,0.7,0.7,0.7
					C7.7,7.3,8,7,8,6.6v-1c0-1.3-1-2.3-2.3-2.3H4.2c-0.5,0-0.9-0.4-0.9-0.9s0.4-0.9,0.9-0.9h29.3c0.4,0,0.7-0.3,0.7-0.7
					S33.9,0.2,33.5,0.2z"/>
			</g>
		</g>
		<g>
			<g>
				<path class="st0" d="M14.3,3.3H11c-1.3,0-2.3,1-2.3,2.3v0.9c0,0.4,0.3,0.7,0.7,0.7s0.7-0.3,0.7-0.7V5.6c0-0.5,0.4-0.9,0.9-0.9
					h3.2c0.5,0,0.9,0.4,0.9,0.9v0.9c0,0.4,0.3,0.7,0.7,0.7c0.4,0,0.7-0.3,0.7-0.7V5.6C16.5,4.3,15.5,3.3,14.3,3.3z"/>
			</g>
		</g>
		<g>
			<g>
				<path class="st0" d="M37,3.3H19.7c-1.3,0-2.3,1-2.3,2.3v0.9c0,0.4,0.3,0.7,0.7,0.7s0.7-0.3,0.7-0.7V5.6c0-0.5,0.4-0.9,0.9-0.9
					H37c0.4,0,0.7-0.3,0.7-0.7S37.4,3.3,37,3.3z"/>
			</g>
		</g>
		<g>
			<g>
				<path class="st0" d="M35.2,6.1H21.8c-0.4,0-0.7,0.3-0.7,0.7c0,0.4,0.3,0.7,0.7,0.7h13.4c0.4,0,0.7-0.3,0.7-0.7
					C36,6.4,35.6,6.1,35.2,6.1z"/>
			</g>
		</g>
		<g>
			<g>
				<path class="st0" d="M32,9.9h-8.2c-0.4,0-0.7,0.3-0.7,0.7s0.3,0.7,0.7,0.7H32c0.4,0,0.7-0.3,0.7-0.7S32.4,9.9,32,9.9z"/>
			</g>
		</g>
		<g>
			<g>
				<path class="st0" d="M26,13.2h-4.3c-0.4,0-0.7,0.3-0.7,0.7s0.3,0.7,0.7,0.7H26c0.4,0,0.7-0.3,0.7-0.7S26.4,13.2,26,13.2z"/>
			</g>
		</g>
		<g>
			<g>
				<path class="st0" d="M38.3,36.7h-2.2V24.3c0-0.4-0.3-0.7-0.7-0.7h-2.7v-6.3c0-0.2-0.1-0.5-0.3-0.6s-0.4-0.2-0.7-0.1l-7,3
					c-0.3,0.1-0.4,0.4-0.4,0.6v3.3h-3.9l-1.5-15c0-0.4-0.3-0.6-0.7-0.6h-2.7c-0.4,0-0.7,0.3-0.7,0.6l-1.5,15h-1.5l-1.5-15
					c0-0.4-0.3-0.6-0.7-0.6H6.8c-0.4,0-0.7,0.3-0.7,0.6l-1.5,15h-1c-0.4,0-0.7,0.3-0.7,0.7v12.4H0.7C0.3,36.7,0,37,0,37.4
					s0.3,0.7,0.7,0.7h37.6c0.4,0,0.7-0.3,0.7-0.7S38.7,36.7,38.3,36.7z M25.6,20.7l5.6-2.4v5.2h-5.6V20.7L25.6,20.7z M16.1,9.3h1.4
					l0.2,2.1h-1.8L16.1,9.3z M15.7,12.8h2.1l1.1,10.7h-4.3L15.7,12.8z M7.5,9.3h1.4l0.2,2.1H7.3L7.5,9.3z M7.1,12.8h2.1l1.1,10.7H6
					L7.1,12.8z M34.7,36.7H4.3V25h30.3v11.7H34.7z"/>
			</g>
		</g>
	</g>
</g>
<g>
	<path d="M48.9,21.2V6.6h3.2v14.6H48.9z"/>
	<path d="M64.6,6.6h3v14.6h-2.4L58,11.9v9.3h-3V6.6h2.4l7.2,9.2V6.6z"/>
	<path d="M70.5,6.6h5.7c1.6,0,2.9,0.3,4.1,0.9c1.1,0.6,2,1.4,2.6,2.5s0.9,2.4,0.9,3.9c0,1.5-0.3,2.8-0.9,3.9
		c-0.6,1.1-1.5,1.9-2.6,2.5c-1.1,0.6-2.5,0.9-4.1,0.9h-5.7V6.6z M75.9,18.6c3.1,0,4.6-1.6,4.6-4.7c0-3.1-1.5-4.7-4.6-4.7h-2.2v9.4
		H75.9z"/>
	<path d="M89.2,20.5c-1.1-0.6-1.9-1.5-2.5-2.6c-0.6-1.1-0.9-2.4-0.9-4c0-1.5,0.3-2.8,0.9-4c0.6-1.1,1.4-2,2.5-2.6
		c1.1-0.6,2.3-0.9,3.8-0.9c1.4,0,2.7,0.3,3.8,0.9c1.1,0.6,1.9,1.5,2.5,2.6c0.6,1.1,0.9,2.4,0.9,4c0,1.5-0.3,2.8-0.9,4
		c-0.6,1.1-1.4,2-2.5,2.6c-1.1,0.6-2.3,0.9-3.8,0.9C91.5,21.4,90.2,21.1,89.2,20.5z M95.8,17.6c0.7-0.9,1-2.1,1-3.7s-0.3-2.8-1-3.7
		C95.1,9.4,94.2,9,92.9,9s-2.2,0.4-2.9,1.3c-0.7,0.8-1,2.1-1,3.7s0.3,2.8,1,3.7c0.7,0.9,1.6,1.3,2.8,1.3S95.1,18.5,95.8,17.6z"/>
	<path class="st0" d="M113.8,15c0.5,0.6,0.7,1.4,0.7,2.3c0,1.2-0.5,2.2-1.4,2.9s-2.1,1.1-3.7,1.1h-6.9V6.6h6.7c1.5,0,2.7,0.3,3.6,1
		c0.9,0.7,1.3,1.6,1.3,2.8c0,0.8-0.2,1.4-0.6,2c-0.4,0.6-1,1-1.7,1.2C112.7,13.9,113.3,14.3,113.8,15z M105.6,12.6h3
		c0.8,0,1.4-0.1,1.8-0.4c0.4-0.3,0.6-0.7,0.6-1.3c0-0.6-0.2-1-0.6-1.3c-0.4-0.3-1-0.4-1.8-0.4h-3V12.6z M110.9,18.3
		c0.4-0.3,0.6-0.8,0.6-1.4s-0.2-1.1-0.6-1.4c-0.4-0.3-1-0.5-1.9-0.5h-3.4v3.7h3.4C109.9,18.7,110.5,18.6,110.9,18.3z"/>
	<path d="M116.7,21.2V6.6h3.2v14.6H116.7z"/>
	<path d="M126,18.7h7.2v2.5h-10.8v-2.4l7-9.7h-7V6.6H133V9L126,18.7z"/>
</g>
<g>
	<path class="st1" d="M49,33.2v-5.6h3.7v0.8H50V30h2.5v0.8H50v2.5H49z"/>
	<path class="st1" d="M57.3,33.2l-0.6-1.3H54l-0.6,1.3h-1l2.6-5.6h0.8l2.6,5.6H57.3z M54.4,31.1h2.1l-1-2.4L54.4,31.1z"/>
	<path class="st1" d="M59.9,32.9c-0.4-0.2-0.7-0.6-1-1c-0.2-0.4-0.3-0.9-0.3-1.5s0.1-1.1,0.3-1.5c0.2-0.4,0.5-0.8,1-1
		c0.4-0.2,0.9-0.4,1.5-0.4c0.4,0,0.7,0.1,1.1,0.2c0.3,0.1,0.6,0.3,0.8,0.5l-0.3,0.8c-0.3-0.2-0.5-0.4-0.8-0.4
		c-0.3-0.1-0.5-0.1-0.8-0.1c-0.5,0-1,0.2-1.3,0.5c-0.3,0.4-0.4,0.9-0.4,1.5c0,0.7,0.1,1.2,0.4,1.5c0.3,0.4,0.7,0.5,1.3,0.5
		c0.3,0,0.5,0,0.8-0.1c0.3-0.1,0.5-0.2,0.8-0.4l0.3,0.8c-0.2,0.2-0.5,0.4-0.8,0.5c-0.3,0.1-0.7,0.2-1.1,0.2
		C60.8,33.3,60.3,33.2,59.9,32.9z"/>
	<path class="st1" d="M65.5,33.2v-4.8h-1.8v-0.8h4.7v0.8h-1.8v4.8H65.5z"/>
	<path class="st1" d="M69.8,33c-0.4-0.2-0.7-0.6-0.9-1s-0.3-0.9-0.3-1.5s0.1-1.1,0.3-1.5c0.2-0.4,0.5-0.8,0.9-1s0.9-0.4,1.4-0.4
		s1,0.1,1.4,0.4s0.7,0.6,0.9,1c0.2,0.4,0.3,0.9,0.3,1.5s-0.1,1.1-0.3,1.5c-0.2,0.4-0.5,0.8-0.9,1c-0.4,0.2-0.9,0.4-1.4,0.4
		C70.7,33.3,70.2,33.2,69.8,33z M72.4,31.9c0.3-0.4,0.4-0.9,0.4-1.5s-0.1-1.2-0.4-1.5c-0.3-0.4-0.7-0.5-1.2-0.5
		c-0.5,0-0.9,0.2-1.2,0.5s-0.4,0.9-0.4,1.5s0.1,1.2,0.4,1.5s0.7,0.5,1.2,0.5C71.7,32.5,72.1,32.3,72.4,31.9z"/>
	<path class="st1" d="M79.7,33.2h-1.1l-1-1.8c-0.1-0.2-0.2-0.3-0.3-0.4C77.1,31,76.9,31,76.7,31H76v2.3h-1v-5.6h2.5
		c0.6,0,1.1,0.1,1.5,0.4s0.5,0.7,0.5,1.2c0,0.4-0.1,0.8-0.4,1.1c-0.2,0.3-0.6,0.5-1,0.5c0.3,0.1,0.5,0.3,0.7,0.6L79.7,33.2z
		 M78.1,30c0.2-0.1,0.3-0.4,0.3-0.7c0-0.3-0.1-0.5-0.3-0.7c-0.2-0.1-0.5-0.2-0.9-0.2h-1.3v1.8h1.3C77.7,30.2,78,30.1,78.1,30z"/>
	<path class="st1" d="M85.1,27.6l-2.3,3v2.6h-1v-2.6l-2.3-3h1.2l1.6,2.2l1.6-2.2H85.1z"/>
	<path class="st1" d="M91.5,33.2l-0.6-0.6c-0.2,0.2-0.5,0.4-0.8,0.5s-0.6,0.2-0.9,0.2c-0.4,0-0.7-0.1-1-0.2
		c-0.3-0.1-0.5-0.3-0.7-0.5c-0.2-0.2-0.2-0.5-0.2-0.8c0-0.3,0.1-0.6,0.3-0.9s0.5-0.5,0.9-0.8c-0.2-0.2-0.4-0.4-0.5-0.6
		c-0.1-0.2-0.1-0.4-0.1-0.6c0-0.4,0.1-0.7,0.4-1c0.3-0.2,0.7-0.4,1.1-0.4c0.4,0,0.8,0.1,1,0.3s0.4,0.5,0.4,0.9
		c0,0.3-0.1,0.5-0.2,0.8c-0.2,0.2-0.4,0.5-0.8,0.7l1.1,1.1c0.2-0.4,0.3-0.9,0.4-1.5h0.8c0,0.8-0.2,1.5-0.6,2.1l1.2,1.3H91.5z
		 M90.4,32.1L89,30.6c-0.3,0.2-0.5,0.3-0.6,0.5c-0.1,0.2-0.2,0.4-0.2,0.6c0,0.3,0.1,0.4,0.3,0.6c0.2,0.1,0.4,0.2,0.7,0.2
		C89.7,32.5,90.1,32.4,90.4,32.1z M89,28.4c-0.1,0.1-0.2,0.3-0.2,0.5c0,0.1,0,0.3,0.1,0.4c0.1,0.1,0.2,0.3,0.4,0.5
		c0.3-0.2,0.5-0.3,0.6-0.4C90,29.1,90,29,90,28.8c0-0.2-0.1-0.3-0.2-0.4c-0.1-0.1-0.2-0.2-0.4-0.2C89.2,28.2,89.1,28.3,89,28.4z"/>
	<path class="st1" d="M95.2,33.2v-5.6h1v5.6H95.2z"/>
	<path class="st1" d="M101.2,27.6h1v5.6h-0.8l-3-3.9v3.9h-1v-5.6h0.8l3,3.9V27.6z"/>
	<path class="st1" d="M103.4,27.6h2.1c0.9,0,1.6,0.2,2.1,0.7s0.8,1.2,0.8,2.1s-0.3,1.6-0.8,2.1s-1.2,0.7-2.1,0.7h-2.1V27.6z
		 M105.4,32.4c1.3,0,1.9-0.7,1.9-2c0-1.3-0.6-2-1.9-2h-1v4H105.4z"/>
	<path class="st1" d="M110,32.7c-0.4-0.4-0.6-1-0.6-1.8v-3.4h1V31c0,0.5,0.1,0.9,0.3,1.1c0.2,0.2,0.6,0.4,1,0.4c0.4,0,0.8-0.1,1-0.4
		c0.2-0.3,0.3-0.6,0.3-1.1v-3.4h1V31c0,0.8-0.2,1.3-0.6,1.7c-0.4,0.4-1,0.6-1.8,0.6C111,33.3,110.4,33.1,110,32.7z"/>
	<path class="st1" d="M116,33.1c-0.4-0.1-0.7-0.3-1-0.5l0.3-0.8c0.3,0.2,0.6,0.4,0.9,0.5c0.3,0.1,0.6,0.1,1,0.1
		c0.4,0,0.7-0.1,0.9-0.2s0.3-0.3,0.3-0.6c0-0.2-0.1-0.4-0.3-0.5c-0.2-0.1-0.5-0.2-1-0.3c-0.5-0.1-0.9-0.2-1.1-0.4
		c-0.3-0.1-0.5-0.3-0.7-0.5c-0.2-0.2-0.2-0.5-0.2-0.8c0-0.3,0.1-0.6,0.3-0.9c0.2-0.3,0.4-0.5,0.8-0.6c0.3-0.1,0.7-0.2,1.1-0.2
		c0.4,0,0.8,0.1,1.1,0.2s0.7,0.3,0.9,0.5l-0.3,0.8c-0.5-0.4-1.1-0.6-1.7-0.6c-0.4,0-0.6,0.1-0.9,0.2s-0.3,0.4-0.3,0.6
		c0,0.2,0.1,0.4,0.3,0.5c0.2,0.1,0.5,0.2,1,0.3c0.5,0.1,0.9,0.2,1.2,0.4c0.3,0.1,0.5,0.3,0.7,0.5s0.2,0.5,0.2,0.8
		c0,0.3-0.1,0.6-0.3,0.9c-0.2,0.3-0.4,0.4-0.8,0.6c-0.3,0.1-0.7,0.2-1.2,0.2C116.8,33.3,116.4,33.2,116,33.1z"/>
	<path class="st1" d="M121.6,33.2v-4.8h-1.8v-0.8h4.7v0.8h-1.8v4.8H121.6z"/>
	<path class="st1" d="M129.9,33.2h-1.1l-1-1.8c-0.1-0.2-0.2-0.3-0.3-0.4S127.2,31,127,31h-0.8v2.3h-1v-5.6h2.5
		c0.6,0,1.1,0.1,1.5,0.4s0.5,0.7,0.5,1.2c0,0.4-0.1,0.8-0.4,1.1c-0.2,0.3-0.6,0.5-1,0.5c0.3,0.1,0.5,0.3,0.7,0.6L129.9,33.2z
		 M128.4,30c0.2-0.1,0.3-0.4,0.3-0.7c0-0.3-0.1-0.5-0.3-0.7c-0.2-0.1-0.5-0.2-0.9-0.2h-1.3v1.8h1.3C128,30.2,128.2,30.1,128.4,30z"
		/>
	<path class="st1" d="M135.4,27.6l-2.3,3v2.6h-1v-2.6l-2.3-3h1.2l1.6,2.2l1.6-2.2H135.4z"/>
</g>
</svg>
