<?xml version="1.0" encoding="utf-8"?>
<!-- Generator: Adobe Illustrator 21.0.2, SVG Export Plug-In . SVG Version: 6.00 Build 0)  -->
<svg version="1.1" id="Layer_1" xmlns="http://www.w3.org/2000/svg" xmlns:xlink="http://www.w3.org/1999/xlink" x="0px" y="0px"
	 viewBox="0 0 135.7 38.1" style="enable-background:new 0 0 135.7 38.1;" xml:space="preserve">
<style type="text/css">
	.st0{fill:#FF8A00;}
	.st1{fill:#FFFFFF;}
</style>
<g>
	<g>
		<g>
			<g>
				<path class="st0" d="M12.5,26.9H7.1c-0.4,0-0.7,0.3-0.7,0.7c0,0.4,0.3,0.7,0.7,0.7h5.3c0.4,0,0.7-0.3,0.7-0.7
					C13.2,27.2,12.9,26.9,12.5,26.9z"/>
			</g>
		</g>
		<g>
			<g>
				<path class="st0" d="M12.5,30.1H7.1c-0.4,0-0.7,0.3-0.7,0.7c0,0.4,0.3,0.7,0.7,0.7h5.3c0.4,0,0.7-0.3,0.7-0.7
					C13.2,30.5,12.9,30.1,12.5,30.1z"/>
			</g>
		</g>
		<g>
			<g>
				<path class="st0" d="M12.5,33.4H7.1c-0.4,0-0.7,0.3-0.7,0.7s0.3,0.7,0.7,0.7h5.3c0.4,0,0.7-0.3,0.7-0.7
					C13.2,33.7,12.9,33.4,12.5,33.4z"/>
			</g>
		</g>
		<g>
			<g>
				<path class="st0" d="M22.2,26.9h-5.3c-0.4,0-0.7,0.3-0.7,0.7c0,0.4,0.3,0.7,0.7,0.7h5.3c0.4,0,0.7-0.3,0.7-0.7
					C22.9,27.2,22.6,26.9,22.2,26.9z"/>
			</g>
		</g>
		<g>
			<g>
				<path class="st0" d="M22.2,30.1h-5.3c-0.4,0-0.7,0.3-0.7,0.7c0,0.4,0.3,0.7,0.7,0.7h5.3c0.4,0,0.7-0.3,0.7-0.7
					C22.9,30.5,22.6,30.1,22.2,30.1z"/>
			</g>
		</g>
		<g>
			<g>
				<path class="st0" d="M22.2,33.4h-5.3c-0.4,0-0.7,0.3-0.7,0.7s0.3,0.7,0.7,0.7h5.3c0.4,0,0.7-0.3,0.7-0.7
					C22.9,33.7,22.6,33.4,22.2,33.4z"/>
			</g>
		</g>
		<g>
			<g>
				<path class="st0" d="M31.9,26.9h-5.3c-0.4,0-0.7,0.3-0.7,0.7c0,0.4,0.3,0.7,0.7,0.7h5.3c0.4,0,0.7-0.3,0.7-0.7
					C32.6,27.2,32.2,26.9,31.9,26.9z"/>
			</g>
		</g>
		<g>
			<g>
				<path class="st0" d="M31.9,30.1h-5.3c-0.4,0-0.7,0.3-0.7,0.7c0,0.4,0.3,0.7,0.7,0.7h5.3c0.4,0,0.7-0.3,0.7-0.7
					C32.6,30.5,32.2,30.1,31.9,30.1z"/>
			</g>
		</g>
		<g>
			<g>
				<path class="st0" d="M31.9,33.4h-5.3c-0.4,0-0.7,0.3-0.7,0.7s0.3,0.7,0.7,0.7h5.3c0.4,0,0.7-0.3,0.7-0.7S32.2,33.4,31.9,33.4z"
					/>
			</g>
		</g>
		<g>
			<g>
				<path class="st0" d="M33.5,0.2H4.2c-1.3,0-2.3,1-2.3,2.3s1,2.3,2.3,2.3h1.5c0.5,0,0.9,0.4,0.9,0.9v0.9c0,0.4,0.3,0.7,0.7,0.7
					C7.7,7.3,8,7,8,6.6v-1c0-1.3-1-2.3-2.3-2.3H4.2c-0.5,0-0.9-0.4-0.9-0.9s0.4-0.9,0.9-0.9h29.3c0.4,0,0.7-0.3,0.7-0.7
					S33.9,0.2,33.5,0.2z"/>
			</g>
		</g>
		<g>
			<g>
				<path class="st0" d="M14.3,3.3H11c-1.3,0-2.3,1-2.3,2.3v0.9c0,0.4,0.3,0.7,0.7,0.7s0.7-0.3,0.7-0.7V5.6c0-0.5,0.4-0.9,0.9-0.9
					h3.2c0.5,0,0.9,0.4,0.9,0.9v0.9c0,0.4,0.3,0.7,0.7,0.7c0.4,0,0.7-0.3,0.7-0.7V5.6C16.5,4.3,15.5,3.3,14.3,3.3z"/>
			</g>
		</g>
		<g>
			<g>
				<path class="st0" d="M37,3.3H19.7c-1.3,0-2.3,1-2.3,2.3v0.9c0,0.4,0.3,0.7,0.7,0.7s0.7-0.3,0.7-0.7V5.6c0-0.5,0.4-0.9,0.9-0.9
					H37c0.4,0,0.7-0.3,0.7-0.7S37.4,3.3,37,3.3z"/>
			</g>
		</g>
		<g>
			<g>
				<path class="st0" d="M35.2,6.1H21.8c-0.4,0-0.7,0.3-0.7,0.7c0,0.4,0.3,0.7,0.7,0.7h13.4c0.4,0,0.7-0.3,0.7-0.7
					C36,6.4,35.6,6.1,35.2,6.1z"/>
			</g>
		</g>
		<g>
			<g>
				<path class="st0" d="M32,9.9h-8.2c-0.4,0-0.7,0.3-0.7,0.7s0.3,0.7,0.7,0.7H32c0.4,0,0.7-0.3,0.7-0.7S32.4,9.9,32,9.9z"/>
			</g>
		</g>
		<g>
			<g>
				<path class="st0" d="M26,13.2h-4.3c-0.4,0-0.7,0.3-0.7,0.7s0.3,0.7,0.7,0.7H26c0.4,0,0.7-0.3,0.7-0.7S26.4,13.2,26,13.2z"/>
			</g>
		</g>
		<g>
			<g>
				<path class="st0" d="M38.3,36.7h-2.2V24.3c0-0.4-0.3-0.7-0.7-0.7h-2.7v-6.3c0-0.2-0.1-0.5-0.3-0.6s-0.4-0.2-0.7-0.1l-7,3
					c-0.3,0.1-0.4,0.4-0.4,0.6v3.3h-3.9l-1.5-15c0-0.4-0.3-0.6-0.7-0.6h-2.7c-0.4,0-0.7,0.3-0.7,0.6l-1.5,15h-1.5l-1.5-15
					c0-0.4-0.3-0.6-0.7-0.6H6.8c-0.4,0-0.7,0.3-0.7,0.6l-1.5,15h-1c-0.4,0-0.7,0.3-0.7,0.7v12.4H0.7C0.3,36.7,0,37,0,37.4
					s0.3,0.7,0.7,0.7h37.6c0.4,0,0.7-0.3,0.7-0.7S38.7,36.7,38.3,36.7z M25.6,20.7l5.6-2.4v5.2h-5.6V20.7L25.6,20.7z M16.1,9.3h1.4
					l0.2,2.1h-1.8L16.1,9.3z M15.7,12.8h2.1l1.1,10.7h-4.3L15.7,12.8z M7.5,9.3h1.4l0.2,2.1H7.3L7.5,9.3z M7.1,12.8h2.1l1.1,10.7H6
					L7.1,12.8z M34.7,36.7H4.3V25h30.3v11.7H34.7z"/>
			</g>
		</g>
	</g>
</g>
<g>
	<path class="st1" d="M47.7,21.2V6.6h3.2v14.6H47.7z"/>
	<path class="st1" d="M63.4,6.6h3v14.6H64l-7.2-9.3v9.3h-3V6.6h2.4l7.2,9.2V6.6z"/>
	<path class="st1" d="M69.3,6.6H75c1.6,0,2.9,0.3,4.1,0.9c1.1,0.6,2,1.4,2.6,2.5s0.9,2.4,0.9,3.9c0,1.5-0.3,2.8-0.9,3.9
		c-0.6,1.1-1.5,1.9-2.6,2.5c-1.1,0.6-2.5,0.9-4.1,0.9h-5.7V6.6z M74.7,18.6c3.1,0,4.6-1.6,4.6-4.7c0-3.1-1.5-4.7-4.6-4.7h-2.2v9.4
		H74.7z"/>
	<path class="st1" d="M88,20.5c-1.1-0.6-1.9-1.5-2.5-2.6c-0.6-1.1-0.9-2.4-0.9-4c0-1.5,0.3-2.8,0.9-4c0.6-1.1,1.4-2,2.5-2.6
		c1.1-0.6,2.3-0.9,3.8-0.9c1.4,0,2.7,0.3,3.8,0.9C96.6,8,97.4,8.8,98,9.9c0.6,1.1,0.9,2.4,0.9,4c0,1.5-0.3,2.8-0.9,4
		c-0.6,1.1-1.4,2-2.5,2.6c-1.1,0.6-2.3,0.9-3.8,0.9C90.3,21.4,89,21.1,88,20.5z M94.6,17.6c0.7-0.9,1-2.1,1-3.7s-0.3-2.8-1-3.7
		c-0.7-0.8-1.6-1.3-2.9-1.3s-2.2,0.4-2.9,1.3c-0.7,0.8-1,2.1-1,3.7s0.3,2.8,1,3.7c0.7,0.9,1.6,1.3,2.8,1.3S93.9,18.4,94.6,17.6z"/>
	<path class="st0" d="M112.6,14.9c0.5,0.6,0.7,1.4,0.7,2.3c0,1.2-0.5,2.2-1.4,2.9c-0.9,0.7-2.1,1.1-3.7,1.1h-6.9V6.6h6.7
		c1.5,0,2.7,0.3,3.6,1c0.9,0.7,1.3,1.6,1.3,2.8c0,0.8-0.2,1.4-0.6,2c-0.4,0.6-1,1-1.7,1.2C111.5,13.9,112.1,14.3,112.6,14.9z
		 M104.4,12.6h3c0.8,0,1.4-0.1,1.8-0.4c0.4-0.3,0.6-0.7,0.6-1.3c0-0.6-0.2-1-0.6-1.3c-0.4-0.3-1-0.4-1.8-0.4h-3V12.6z M109.7,18.3
		c0.4-0.3,0.6-0.8,0.6-1.4s-0.2-1.1-0.6-1.4c-0.4-0.3-1-0.5-1.9-0.5h-3.4v3.7h3.4C108.7,18.7,109.3,18.6,109.7,18.3z"/>
	<path class="st1" d="M115.5,21.2V6.6h3.2v14.6H115.5z"/>
	<path class="st1" d="M124.8,18.6h7.2v2.5h-10.8v-2.4l7-9.7h-7V6.6h10.6v2.3L124.8,18.6z"/>
</g>
<g>
	<path class="st1" d="M47.8,33.2v-5.6h3.7v0.8h-2.7v1.5h2.5v0.8h-2.5v2.5H47.8z"/>
	<path class="st1" d="M56.1,33.2l-0.6-1.3h-2.7l-0.6,1.3h-1l2.6-5.6h0.8l2.6,5.6H56.1z M53.2,31.1h2.1l-1-2.4L53.2,31.1z"/>
	<path class="st1" d="M58.7,32.9c-0.4-0.2-0.7-0.6-1-1c-0.2-0.4-0.3-0.9-0.3-1.5c0-0.6,0.1-1.1,0.3-1.5c0.2-0.4,0.5-0.8,1-1
		c0.4-0.2,0.9-0.4,1.5-0.4c0.4,0,0.7,0.1,1.1,0.2c0.3,0.1,0.6,0.3,0.8,0.5l-0.3,0.8c-0.3-0.2-0.5-0.4-0.8-0.4
		c-0.3-0.1-0.5-0.1-0.8-0.1c-0.5,0-1,0.2-1.3,0.5c-0.3,0.4-0.4,0.9-0.4,1.5c0,0.7,0.1,1.2,0.4,1.5c0.3,0.4,0.7,0.5,1.3,0.5
		c0.3,0,0.5,0,0.8-0.1c0.3-0.1,0.5-0.2,0.8-0.4l0.3,0.8c-0.2,0.2-0.5,0.4-0.8,0.5c-0.3,0.1-0.7,0.2-1.1,0.2
		C59.6,33.3,59.1,33.2,58.7,32.9z"/>
	<path class="st1" d="M64.3,33.2v-4.8h-1.8v-0.8h4.7v0.8h-1.8v4.8H64.3z"/>
	<path class="st1" d="M68.6,32.9c-0.4-0.2-0.7-0.6-0.9-1c-0.2-0.4-0.3-0.9-0.3-1.5c0-0.6,0.1-1.1,0.3-1.5c0.2-0.4,0.5-0.8,0.9-1
		c0.4-0.2,0.9-0.4,1.4-0.4s1,0.1,1.4,0.4c0.4,0.2,0.7,0.6,0.9,1c0.2,0.4,0.3,0.9,0.3,1.5c0,0.6-0.1,1.1-0.3,1.5
		c-0.2,0.4-0.5,0.8-0.9,1c-0.4,0.2-0.9,0.4-1.4,0.4C69.5,33.3,69,33.2,68.6,32.9z M71.2,31.9c0.3-0.4,0.4-0.9,0.4-1.5
		c0-0.7-0.1-1.2-0.4-1.5c-0.3-0.4-0.7-0.5-1.2-0.5c-0.5,0-0.9,0.2-1.2,0.5s-0.4,0.9-0.4,1.5c0,0.7,0.1,1.2,0.4,1.5
		c0.3,0.4,0.7,0.5,1.2,0.5C70.5,32.5,70.9,32.3,71.2,31.9z"/>
	<path class="st1" d="M78.5,33.2h-1.1l-1-1.8c-0.1-0.2-0.2-0.3-0.3-0.4C75.9,31,75.7,31,75.5,31h-0.8v2.3h-1v-5.6h2.5
		c0.6,0,1.1,0.1,1.5,0.4c0.3,0.3,0.5,0.7,0.5,1.2c0,0.4-0.1,0.8-0.4,1.1c-0.2,0.3-0.6,0.5-1,0.5c0.3,0.1,0.5,0.3,0.7,0.6L78.5,33.2z
		 M76.9,29.9c0.2-0.1,0.3-0.4,0.3-0.7c0-0.3-0.1-0.5-0.3-0.7c-0.2-0.1-0.5-0.2-0.9-0.2h-1.3v1.8h1.3C76.5,30.2,76.8,30.1,76.9,29.9z
		"/>
	<path class="st1" d="M83.9,27.6l-2.3,3v2.6h-1v-2.6l-2.3-3h1.2l1.6,2.2l1.6-2.2H83.9z"/>
	<path class="st1" d="M90.3,33.2l-0.6-0.6c-0.2,0.2-0.5,0.4-0.8,0.5c-0.3,0.1-0.6,0.2-0.9,0.2c-0.4,0-0.7-0.1-1-0.2
		c-0.3-0.1-0.5-0.3-0.7-0.5c-0.2-0.2-0.2-0.5-0.2-0.8c0-0.3,0.1-0.6,0.3-0.9s0.5-0.5,0.9-0.8c-0.2-0.2-0.4-0.4-0.5-0.6
		c-0.1-0.2-0.1-0.4-0.1-0.6c0-0.4,0.1-0.7,0.4-1c0.3-0.2,0.7-0.4,1.1-0.4c0.4,0,0.8,0.1,1,0.3c0.3,0.2,0.4,0.5,0.4,0.9
		c0,0.3-0.1,0.5-0.2,0.8c-0.2,0.2-0.4,0.5-0.8,0.7l1.1,1.1c0.2-0.4,0.3-0.9,0.4-1.5h0.8c0,0.8-0.2,1.5-0.6,2.1l1.2,1.3H90.3z
		 M89.2,32l-1.4-1.4c-0.3,0.2-0.5,0.3-0.6,0.5s-0.2,0.4-0.2,0.6c0,0.3,0.1,0.4,0.3,0.6s0.4,0.2,0.7,0.2C88.5,32.5,88.9,32.4,89.2,32
		z M87.8,28.4c-0.1,0.1-0.2,0.3-0.2,0.5c0,0.1,0,0.3,0.1,0.4c0.1,0.1,0.2,0.3,0.4,0.5c0.3-0.2,0.5-0.3,0.6-0.4
		c0.1-0.1,0.2-0.3,0.2-0.4c0-0.2-0.1-0.3-0.2-0.4c-0.1-0.1-0.2-0.2-0.4-0.2C88,28.2,87.9,28.3,87.8,28.4z"/>
	<path class="st1" d="M94,33.2v-5.6h1v5.6H94z"/>
	<path class="st1" d="M100,27.6h1v5.6h-0.8l-3-3.9v3.9h-1v-5.6H97l3,3.9V27.6z"/>
	<path class="st1" d="M102.2,27.6h2.1c0.9,0,1.6,0.2,2.1,0.7s0.8,1.2,0.8,2.1c0,0.9-0.3,1.6-0.8,2.1s-1.2,0.7-2.1,0.7h-2.1V27.6z
		 M104.2,32.4c1.3,0,1.9-0.7,1.9-2c0-1.3-0.6-2-1.9-2h-1v4H104.2z"/>
	<path class="st1" d="M108.8,32.7c-0.4-0.4-0.6-1-0.6-1.8v-3.4h1V31c0,0.5,0.1,0.9,0.3,1.1s0.6,0.4,1,0.4c0.4,0,0.8-0.1,1-0.4
		c0.2-0.3,0.3-0.6,0.3-1.1v-3.4h1v3.4c0,0.8-0.2,1.3-0.6,1.7c-0.4,0.4-1,0.6-1.8,0.6C109.8,33.3,109.2,33.1,108.8,32.7z"/>
	<path class="st1" d="M114.8,33.1c-0.4-0.1-0.7-0.3-1-0.5l0.3-0.8c0.3,0.2,0.6,0.4,0.9,0.5c0.3,0.1,0.6,0.1,1,0.1
		c0.4,0,0.7-0.1,0.9-0.2c0.2-0.1,0.3-0.3,0.3-0.6c0-0.2-0.1-0.4-0.3-0.5c-0.2-0.1-0.5-0.2-1-0.3c-0.5-0.1-0.9-0.2-1.1-0.4
		c-0.3-0.1-0.5-0.3-0.7-0.5s-0.2-0.5-0.2-0.8c0-0.3,0.1-0.6,0.3-0.9c0.2-0.3,0.4-0.5,0.8-0.6c0.3-0.1,0.7-0.2,1.1-0.2
		c0.4,0,0.8,0.1,1.1,0.2c0.4,0.1,0.7,0.3,0.9,0.5l-0.3,0.8c-0.5-0.4-1.1-0.6-1.7-0.6c-0.4,0-0.6,0.1-0.9,0.2
		c-0.2,0.1-0.3,0.4-0.3,0.6c0,0.2,0.1,0.4,0.3,0.5c0.2,0.1,0.5,0.2,1,0.3c0.5,0.1,0.9,0.2,1.2,0.4c0.3,0.1,0.5,0.3,0.7,0.5
		c0.2,0.2,0.2,0.5,0.2,0.8c0,0.3-0.1,0.6-0.3,0.9c-0.2,0.3-0.4,0.4-0.8,0.6s-0.7,0.2-1.2,0.2C115.6,33.3,115.2,33.2,114.8,33.1z"/>
	<path class="st1" d="M120.4,33.2v-4.8h-1.8v-0.8h4.7v0.8h-1.8v4.8H120.4z"/>
	<path class="st1" d="M128.7,33.2h-1.1l-1-1.8c-0.1-0.2-0.2-0.3-0.3-0.4c-0.1-0.1-0.3-0.1-0.5-0.1H125v2.3h-1v-5.6h2.5
		c0.6,0,1.1,0.1,1.5,0.4c0.3,0.3,0.5,0.7,0.5,1.2c0,0.4-0.1,0.8-0.4,1.1c-0.2,0.3-0.6,0.5-1,0.5c0.3,0.1,0.5,0.3,0.7,0.6L128.7,33.2
		z M127.2,29.9c0.2-0.1,0.3-0.4,0.3-0.7c0-0.3-0.1-0.5-0.3-0.7c-0.2-0.1-0.5-0.2-0.9-0.2H125v1.8h1.3
		C126.8,30.2,127,30.1,127.2,29.9z"/>
	<path class="st1" d="M134.2,27.6l-2.3,3v2.6h-1v-2.6l-2.3-3h1.2l1.6,2.2l1.6-2.2H134.2z"/>
</g>
</svg>
